<?xml version="1.0" encoding="UTF-8" standalone="no"?>
<svg width="500px" height="500px" viewBox="0 0 500 500" version="1.1" xmlns="http://www.w3.org/2000/svg" xmlns:xlink="http://www.w3.org/1999/xlink" xmlns:sketch="http://www.bohemiancoding.com/sketch/ns">
    <!-- Generator: Sketch 3.3.3 (12081) - http://www.bohemiancoding.com/sketch -->
    <title>nivo</title>
    <desc>Created with Sketch.</desc>
    <defs></defs>
    <g id="Page-1" stroke="none" stroke-width="1" fill="none" fill-rule="evenodd" sketch:type="MSPage">
        <g id="nivo" sketch:type="MSLayerGroup" transform="translate(-1.000000, 0.000000)">
            <path d="M501,81.7039927 L501,73.646834 L501,73.646834 L106.731507,50.2394281 L1,61.3584202 L1,64.6951171 L1,64.6951171 L95.9042878,74.6754915 L501,81.7039927 L501,81.7039927 Z M422.270196,94.34012 L315.839331,97.8044158 L255.35925,91.4441778 L422.270196,94.34012 L422.270196,94.34012 Z M95.0491208,88.6627613 L213.617481,101.131709 L1,108.052351 L1,78.7723184 L1,78.7723184 L1.99668185,78.8771319 L1.85495326,87.0458216 L95.0491208,88.6627613 L95.0491208,88.6627613 Z M501,117.276379 L501,105.784901 L501,105.784901 L417.554423,108.501032 L501,117.276379 L501,117.276379 L501,117.276379 Z M467.01489,127.77962 L1,142.893617 L1,122.059765 L315.332573,111.828325 L467.01489,127.77962 L467.01489,127.77962 L467.01489,127.77962 Z M293.729412,16.4970551 L450.601409,6.88338275e-15 L450.601409,0 L1,0 L1,29.9375816 L1,29.9375816 L106.412115,36.1958148 L192.027055,27.1923317 L1.77215145,20.9962908 L2.22784855,7.00370919 L293.729412,16.4970551 L293.729412,16.4970551 L293.729412,16.4970551 Z M501,37.254669 L501,59.6221827 L501,59.6221827 L191.971306,41.2753957 L294.236049,30.5209771 L501,37.254669 L501,37.254669 L501,37.254669 Z M501,23.2472467 L501,8.77715822 L501,8.77715822 L395.938407,19.8257005 L501,23.2472467 L501,23.2472467 L501,23.2472467 Z M501,254.245458 L501,223.313401 L501,223.313401 L1,180.508301 L1,305.791093 L501,254.245458 L501,254.245458 L501,254.245458 Z M501,276.254738 L501,500 L1,500 L1,327.800373 L501,276.254738 L501,276.254738 L501,276.254738 Z M501,209.262191 L501,140.684762 L501,140.684762 L1,156.900978 L1,166.457091 L501,209.262191 L501,209.262191 Z M1,43.9622328 L1,47.2812189 L21.1723167,45.1598472 L1,43.9622328 L1,43.9622328 L1,43.9622328 Z" id="Rectangle-1" fill="#4990E2" sketch:type="MSShapeGroup"></path>
            <path d="M184.64,384.552 L200.192,384.552 L200.192,395.496 L200.48,395.784 C202.976012,391.655979 206.23998,388.416012 210.272,386.064 C214.30402,383.711988 218.767976,382.536 223.664,382.536 C231.824041,382.536 238.255976,384.647979 242.96,388.872 C247.664024,393.096021 250.016,399.431958 250.016,407.88 L250.016,459 L233.6,459 L233.6,412.2 C233.407999,406.343971 232.160012,402.096013 229.856,399.456 C227.551988,396.815987 223.952024,395.496 219.056,395.496 C216.271986,395.496 213.776011,395.999995 211.568,397.008 C209.359989,398.016005 207.488008,399.407991 205.952,401.184 C204.415992,402.960009 203.216004,405.047988 202.352,407.448 C201.487996,409.848012 201.056,412.391987 201.056,415.08 L201.056,459 L184.64,459 L184.64,384.552 Z M271.828,356.184 L288.244,356.184 L288.244,371.736 L271.828,371.736 L271.828,356.184 Z M271.828,384.552 L288.244,384.552 L288.244,459 L271.828,459 L271.828,384.552 Z M305.056,384.552 L322.912,384.552 L341.776,441.72 L342.064,441.72 L360.208,384.552 L377.2,384.552 L350.56,459 L332.128,459 L305.056,384.552 Z M425.364,461.016 C419.41197,461.016 414.108023,460.03201 409.452,458.064 C404.795977,456.09599 400.860016,453.384017 397.644,449.928 C394.427984,446.471983 391.980008,442.344024 390.3,437.544 C388.619992,432.743976 387.78,427.464029 387.78,421.704 C387.78,416.039972 388.619992,410.808024 390.3,406.008 C391.980008,401.207976 394.427984,397.080017 397.644,393.624 C400.860016,390.167983 404.795977,387.45601 409.452,385.488 C414.108023,383.51999 419.41197,382.536 425.364,382.536 C431.31603,382.536 436.619977,383.51999 441.276,385.488 C445.932023,387.45601 449.867984,390.167983 453.084,393.624 C456.300016,397.080017 458.747992,401.207976 460.428,406.008 C462.108008,410.808024 462.948,416.039972 462.948,421.704 C462.948,427.464029 462.108008,432.743976 460.428,437.544 C458.747992,442.344024 456.300016,446.471983 453.084,449.928 C449.867984,453.384017 445.932023,456.09599 441.276,458.064 C436.619977,460.03201 431.31603,461.016 425.364,461.016 L425.364,461.016 Z M425.364,448.056 C429.012018,448.056 432.179987,447.288008 434.868,445.752 C437.556013,444.215992 439.763991,442.200012 441.492,439.704 C443.220009,437.207988 444.491996,434.400016 445.308,431.28 C446.124004,428.159984 446.532,424.968016 446.532,421.704 C446.532,418.535984 446.124004,415.368016 445.308,412.2 C444.491996,409.031984 443.220009,406.224012 441.492,403.776 C439.763991,401.327988 437.556013,399.336008 434.868,397.8 C432.179987,396.263992 429.012018,395.496 425.364,395.496 C421.715982,395.496 418.548013,396.263992 415.86,397.8 C413.171987,399.336008 410.964009,401.327988 409.236,403.776 C407.507991,406.224012 406.236004,409.031984 405.42,412.2 C404.603996,415.368016 404.196,418.535984 404.196,421.704 C404.196,424.968016 404.603996,428.159984 405.42,431.28 C406.236004,434.400016 407.507991,437.207988 409.236,439.704 C410.964009,442.200012 413.171987,444.215992 415.86,445.752 C418.548013,447.288008 421.715982,448.056 425.364,448.056 L425.364,448.056 Z" fill="#FFFFFF" sketch:type="MSShapeGroup"></path>
        </g>
    </g>
</svg>